<svg xmlns="http://www.w3.org/2000/svg" xmlns:xlink="http://www.w3.org/1999/xlink" width="1920" height="233.931" viewBox="0 0 1920 233.931">
  <defs>
    <linearGradient id="linear-gradient" x1="0.981" y1="1.047" x2="0.007" y2="0.05" gradientUnits="objectBoundingBox">
      <stop offset="0" stop-color="#021222" stop-opacity="0"/>
      <stop offset="0.266" stop-color="#021725" stop-opacity="0.4"/>
      <stop offset="0.5" stop-color="#021222" stop-opacity="0.6"/>
      <stop offset="0.788" stop-color="#021926" stop-opacity="0.42"/>
      <stop offset="1" stop-color="#021222" stop-opacity="0"/>
    </linearGradient>
    <linearGradient id="linear-gradient-2" x1="0.019" y1="1.047" x2="0.993" y2="0.05" xlink:href="#linear-gradient"/>
  </defs>
  <g id="Group_25374" data-name="Group 25374" transform="translate(1920 233.931) rotate(180)">
    <path id="Path_87757" data-name="Path 87757" d="M0,449.527H1920V292.657H1744.586s-32.924,1.361-60.824-4.624-51.576-20.274-51.576-20.274l-39.127-23.12s-25.876-16.807-55.844-23.477-64.736-4.979-64.736-4.979H432.775s-26.611-2.829-51.605,3.936S332.8,243.239,332.8,243.239L300,263.158s-22.6,15.18-48.658,22.408-55.582,6.506-55.582,6.506L0,292.657Z" transform="translate(0 -215.596)" fill="#fff"/>
    <path id="Path_87758" data-name="Path 87758" d="M-275-88.524l152.884.195s27.41-1.578,51.988,4.937S-23.8-62.268-23.8-62.268L17.936-37.635A161.738,161.738,0,0,0,63.844-17.371c20.3,5.2,44.41,5.959,54.261,6.046,2.426.022,185.811-.008,185.811-.008v-1.81s-184.709-.25-185.811-.227c-5.888.125-31.029-.49-53.71-6.035A156.064,156.064,0,0,1,18.9-39.107L-22.658-63.8s-21.7-14.975-46.562-21.6-52.9-4.894-52.9-4.894H-275Z" transform="translate(1606 120.734)" fill="url(#linear-gradient)"/>
    <path id="Path_87760" data-name="Path 87760" d="M303.916-88.524l-152.884.195s-27.41-1.578-51.988,4.937S52.719-62.267,52.719-62.267L10.98-37.634A161.737,161.737,0,0,1-34.928-17.37c-20.3,5.2-44.41,5.959-54.261,6.046C-91.615-11.3-275-11.331-275-11.331v-1.81s184.709-.25,185.811-.227c5.888.125,31.029-.49,53.71-6.035a156.062,156.062,0,0,0,45.494-19.7L51.574-63.8s21.7-14.975,46.562-21.6,52.9-4.894,52.9-4.894H303.916Z" transform="translate(294.063 120.734)" fill="url(#linear-gradient-2)"/>
  </g>
</svg>
