<svg xmlns="http://www.w3.org/2000/svg" width="112.559" height="29.827" viewBox="0 0 112.559 29.827">
  <path id="Path_87815" data-name="Path 87815" d="M174.161,188.427v3.9h-13.32a11.525,11.525,0,0,1-10.85,7.63H134.78a12.213,12.213,0,0,1-2.845,5.869c-1.712,1.891-3.79,2.812-8.649,7.165-2.388,2.144-4.231,4.019-5.413,5.266-1.174-1.247-3.016-3.122-5.4-5.266-4.858-4.353-6.937-5.274-8.649-7.165a12.215,12.215,0,0,1-2.845-5.869h-15.2a11.528,11.528,0,0,1-10.85-7.63H61.6v-3.9Z" transform="translate(-61.602 -188.427)" fill="#f8f8f8"/>
</svg>
