<svg xmlns="http://www.w3.org/2000/svg" width="145.688" height="38.606" viewBox="0 0 145.688 38.606">
  <path id="Path_87817" data-name="Path 87817" d="M207.29,188.427v5.043h-17.24a14.917,14.917,0,0,1-14.043,9.876H156.318a15.807,15.807,0,0,1-3.682,7.6c-2.216,2.448-4.906,3.64-11.194,9.274-3.091,2.775-5.476,5.2-7.006,6.816-1.52-1.614-3.9-4.041-7-6.816-6.288-5.634-8.979-6.827-11.195-9.274a15.81,15.81,0,0,1-3.682-7.6H92.886a14.921,14.921,0,0,1-14.043-9.876H61.6v-5.043Z" transform="translate(-61.602 -188.427)" fill="#fff"/>
</svg>
