<svg id="Group_1" data-name="Group 1" xmlns="http://www.w3.org/2000/svg" xmlns:xlink="http://www.w3.org/1999/xlink" width="45.188" height="45.15" viewBox="0 0 45.188 45.15">
  <defs>
    <radialGradient id="radial-gradient" cx="0.669" cy="0.349" r="0.58" gradientTransform="matrix(0.901, 0.434, -1.193, 2.475, 0.482, -0.805)" gradientUnits="objectBoundingBox">
      <stop offset="0" stop-color="#efd29f"/>
      <stop offset="1" stop-color="#806700"/>
    </radialGradient>
  </defs>
  <path id="Path_1" data-name="Path 1" d="M418.993,423.926a12.291,12.291,0,0,0-4.784-2.937,13.241,13.241,0,0,0-4.182-.558c-2.139.02-4.278,0-6.418.005-1.534,0-3.069.012-4.6.007-.94,0-1.887.04-2.82-.052a15.027,15.027,0,0,1-3.646-.8,18.457,18.457,0,0,1-3.256-1.524,14.86,14.86,0,0,1-3.119-2.494,17.338,17.338,0,0,1-2.19-2.786,16.606,16.606,0,0,1-1.645-3.582,19.421,19.421,0,0,1-.592-2.955A33.315,33.315,0,0,1,381.6,401c-.012-1.477,0-2.955,0-4.432,0-.672.156-.856.836-.871,1.01-.023,2.021-.005,3.031,0,1.792,0,3.584-.018,5.375.015a13.994,13.994,0,0,1,5.114,1.044,11.477,11.477,0,0,1,2.095,1.051A4.371,4.371,0,0,1,399.8,400.4a5.076,5.076,0,0,1-.185,3.089c-.161.46-.484.527-.851.207-.534-.466-1.039-.972-1.608-1.392a9.553,9.553,0,0,0-2.612-1.432,12.846,12.846,0,0,0-5.1-.815c-.938-.019-1.878,0-2.817,0-.466,0-.665.184-.661.642.014,1.657-.038,3.32.082,4.969a10.8,10.8,0,0,0,.671,2.747,11.95,11.95,0,0,0,1.114,2.307,11.218,11.218,0,0,0,3.041,3.187,11.969,11.969,0,0,0,4.249,1.9,14.507,14.507,0,0,0,3.6.264c1.068-.012,2.137.012,3.206.012,1.279,0,2.558-.015,3.837-.013,1.022,0,2.046.021,3.069.032.988.01,1.981-.034,2.963.046a15.111,15.111,0,0,1,2.8.453,19.728,19.728,0,0,1,3.185,1.168,15.181,15.181,0,0,1,5.191,4.077,15.693,15.693,0,0,1,3.072,5.674,15.986,15.986,0,0,1,.673,4.624c-.016,2.317.009,4.636.014,6.954,0,.322,0,.643-.021.964-.028.537-.271.769-.819.769-2.408,0-4.817.021-7.225-.012a22.543,22.543,0,0,1-3.361-.23,13.921,13.921,0,0,1-4.787-1.672,4.362,4.362,0,0,1-1.64-1.855,4.791,4.791,0,0,1-.152-4.1c.168-.433.468-.5.8-.162a12.18,12.18,0,0,0,3.859,2.7,12.371,12.371,0,0,0,2.66.769,29.768,29.768,0,0,0,5.788.173c.325,0,.517-.173.515-.482-.009-1.758.025-3.519-.077-5.272a9.713,9.713,0,0,0-.893-3.268A11.882,11.882,0,0,0,418.993,423.926Z" transform="translate(-381.558 -395.687)" fill="url(#radial-gradient)"/>
  <path id="Path_2" data-name="Path 2" d="M409.5,400c.544-.408,1.461-1.117,2.4-1.792a13.92,13.92,0,0,1,3.169-1.541,13.112,13.112,0,0,1,3.706-.877c1.225-.1,2.459-.083,3.69-.092,1.907-.013,3.814-.006,5.721-.006.711,0,.939.19.958.885.03,1.083.025,2.166.029,3.249,0,1.373.007,2.746,0,4.118a17.246,17.246,0,0,1-.675,4.966,15.1,15.1,0,0,1-1.329,3.2,4.281,4.281,0,0,1-3.1,2.189,4.347,4.347,0,0,1-2.527-.388,1.449,1.449,0,0,1-.216-.113c-.568-.368-.584-.509-.112-.98a11.936,11.936,0,0,0,2.462-3.393,10.4,10.4,0,0,0,1.067-4.106c.041-1.572.032-3.145.029-4.718,0-.378-.18-.528-.572-.525-1.677.016-3.358-.011-5.032.08a9.606,9.606,0,0,0-3.72,1.052,11.653,11.653,0,0,0-3.232,2.277,12.087,12.087,0,0,0-2.591,3.926,12.775,12.775,0,0,0-.837,3.469c-.078.706-.241.845-.955.842-.871,0-1.741,0-2.611,0a.748.748,0,0,1-.782-.814,16.516,16.516,0,0,1,.714-3.959,15.93,15.93,0,0,1,1.278-2.959A19.314,19.314,0,0,1,409.5,400Z" transform="translate(-383.99 -395.688)" fill="url(#radial-gradient)"/>
  <path id="Path_3" data-name="Path 3" d="M398.59,436.133a11.131,11.131,0,0,0,2.5-3.707,12.933,12.933,0,0,0,.885-3.707c.067-.565.26-.725.845-.724q1.306,0,2.61-.011c.643-.007.889.281.863.917a12.906,12.906,0,0,1-.7,3.843,20.209,20.209,0,0,1-1.416,3.24,13.971,13.971,0,0,1-3.746,4.357c-.817.608-1.639,1.215-2.5,1.75a8,8,0,0,1-1.766.794,26.08,26.08,0,0,1-3.37.927,18.708,18.708,0,0,1-3.056.191c-2.186.026-4.373.009-6.559.009-.277,0-.555.014-.831,0-.532-.024-.742-.23-.75-.752-.013-.843-.005-1.686-.011-2.529-.007-1.384-.021-2.77-.026-4.154a18.689,18.689,0,0,1,.7-5.856,8.208,8.208,0,0,1,2.072-3.879,4.847,4.847,0,0,1,3.105-1.2,5.258,5.258,0,0,1,1.995.367c.436.151.5.434.2.792a30.965,30.965,0,0,0-2.021,2.527,10.868,10.868,0,0,0-1.379,3.5,19.683,19.683,0,0,0-.271,4.289c-.013.65,0,1.3,0,1.949a.532.532,0,0,0,.571.591c1.4,0,2.8.022,4.207-.007a11.4,11.4,0,0,0,4.993-1.332A10.439,10.439,0,0,0,398.59,436.133Z" transform="translate(-381.558 -398.871)" fill="url(#radial-gradient)"/>
</svg>
