<svg xmlns="http://www.w3.org/2000/svg" width="121.283" height="27" viewBox="0 0 121.283 27">
  <g id="logo" transform="translate(-92.933 -366.928)">
    <g id="Group_2" data-name="Group 2" transform="translate(92.933 366.928)">
      <g id="Group_25376" data-name="Group 25376" transform="translate(0 0)">
        <path id="Path_87819" data-name="Path 87819" d="M205.343,155.459v-4.736c0-.519-.011-1.039.009-1.558a.464.464,0,0,1,.184-.337q4.9-2.749,9.808-5.477c.045-.025.093-.043.163-.076a1.014,1.014,0,0,1-.25,1.032,3.357,3.357,0,0,1-.74.558q-4.286,2.408-8.583,4.8c-.484.27-.51.325-.4.93.1-.048.189-.089.276-.136q4.535-2.472,9.069-4.946a2.445,2.445,0,0,0,1.4-1.578A2.616,2.616,0,0,0,216,142.1a3,3,0,0,1-.3-.721c.079.049.189.079.231.15a6.448,6.448,0,0,1,1.039,3.313,5.656,5.656,0,0,1-2.7,4.874c-.133.092-.271.177-.452.3.43.077.808.114,1.168.215a6.272,6.272,0,0,1,4.328,4.164,7.159,7.159,0,0,1-2.452,8.231,5.761,5.761,0,0,1-3.42,1.058c-2.317.008-4.633,0-6.95,0a5.84,5.84,0,0,1-4.027-1.378c-.134-.118-.23-.077-.357-.007q-1.117.616-2.24,1.221a.724.724,0,0,1-.312.124,20.1,20.1,0,0,1-2.859-.08,5.687,5.687,0,0,1-4.8-4.381,7.042,7.042,0,0,1-.232-1.936c-.015-4.415,0-8.83,0-13.244a.468.468,0,0,1,.29-.479c1.2-.636,2.393-1.287,3.589-1.932.088-.047.181-.085.3-.138.025.367.1.682-.319.886a.846.846,0,0,0-.419.817q0,8.96.006,17.919a2.181,2.181,0,0,0,2.257,2.331,4.4,4.4,0,0,0,1.38-.139,2.043,2.043,0,0,0,1.489-1.911c.054-.546.051-1.1.051-1.649q.005-7.822,0-15.644a.55.55,0,0,1,.343-.57c1.167-.611,2.321-1.246,3.48-1.872.1-.053.2-.1.3-.154.135.456.09.587-.267.851a1.061,1.061,0,0,0-.435.915q.008,3.786,0,7.573,0,5.048,0,10.1a2.91,2.91,0,0,0,.353,1.463,1.95,1.95,0,0,0,1.732,1.037c1.142.034,2.285.035,3.427.035,1.506,0,3.013.017,4.517-.031a2.3,2.3,0,0,0,2.385-2.455c.042-2.731.036-5.464,0-8.2a2.387,2.387,0,0,0-2.676-2.46.832.832,0,0,0-.348.107q-3.254,1.767-6.5,3.54a.946.946,0,0,0-.591.816C206,155.191,205.727,155.329,205.343,155.459Z" transform="translate(-151.68 -141.376)" fill="#2d4383"/>
        <path id="Path_87820" data-name="Path 87820" d="M323.594,187.769c-.008.01-.021.019-.019.025.094.544-.277.734-.674.945-1.08.575-2.144,1.183-3.22,1.766a1.1,1.1,0,0,1-.5.132c-1.621.01-3.241.015-4.862,0a5.891,5.891,0,0,1-5.84-4.5,8.1,8.1,0,0,1-.219-1.847c-.023-2.857-.015-5.714-.007-8.571,0-.451-.033-.842-.59-.921-.016,0-.024-.051-.074-.163,1.59,0,3.137,0,4.716-.007-.038.119-.039.15-.051.155-.526.209-.555.248-.555.883,0,2.483,0,4.966,0,7.449,0,1.517-.025,3.033-.022,4.55a4.869,4.869,0,0,0,.106,1.018,2.007,2.007,0,0,0,1.946,1.671c1.411.042,2.825.05,4.236.007a2.189,2.189,0,0,0,2.126-2.217c.019-1.444.005-2.888.006-4.332,0-2.2.006-4.4,0-6.607a.439.439,0,0,1,.274-.452c1.219-.647,2.429-1.308,3.643-1.964.081-.043.164-.082.278-.138.031.37.1.684-.323.9a.9.9,0,0,0-.419.882c.006,1.527,0,3.054,0,4.581s-.011,3.075.011,4.612a2.24,2.24,0,0,0,2.35,2.421,3.841,3.841,0,0,0,.989-.078,2.139,2.139,0,0,0,1.8-2.18c.008-.187.012-.374.012-.561q.009-5.111.015-10.222c0-.4,0-.4.409-.4h3.552c.077.176.075.3-.129.336a.485.485,0,0,0-.4.549c0,.634,0,1.267,0,1.9,0,1.465-.014,2.93,0,4.394a6.26,6.26,0,0,1-2.6,5.41,1.265,1.265,0,0,1-.132.073,1.818,1.818,0,0,0,.895.6,3.331,3.331,0,0,0,2.229,0,2.058,2.058,0,0,0,1.431-1.793,6.69,6.69,0,0,0,.051-.9q.005-5.064,0-10.129v-.423c.119-.009.209-.02.3-.021,1.143,0,2.286,0,3.428,0a.876.876,0,0,1,.3.125c-.081.071-.151.172-.246.209a.521.521,0,0,0-.349.5c-.014.217-.007.436-.007.654,0,2.057.045,4.115-.013,6.171a6.03,6.03,0,0,1-8.4,5.52.663.663,0,0,0-.554,0,6.2,6.2,0,0,1-4.554.087c-.1-.035-.193-.074-.291-.109A.178.178,0,0,0,323.594,187.769Z" transform="translate(-237.507 -165.972)" fill="#2d4383"/>
        <path id="Path_87821" data-name="Path 87821" d="M117.712,174.671c.023.362.108.678-.317.882a.925.925,0,0,0-.456.9q0,4.518.005,9.037a3.674,3.674,0,0,0,.119.86A2.04,2.04,0,0,0,119.1,188a5.5,5.5,0,0,0,1.179-.036,2.162,2.162,0,0,0,1.839-2.223c.016-3.428.006-6.856,0-10.284a.544.544,0,0,0-.465-.634c-.055-.016-.1-.071-.147-.109.06-.036.119-.1.18-.1.4-.009.81-.005,1.215-.005,1,0,1.994,0,2.992,0a.89.89,0,0,1,.261.088,1.165,1.165,0,0,1-.222.144c-.338.124-.39.4-.391.706q0,1.511,0,3.023,0,3.038.008,6.076c0,.456.13,1-.069,1.343s-.731.466-1.12.682c-.889.493-1.776.989-2.671,1.471a1.051,1.051,0,0,1-.5.128,22.683,22.683,0,0,1-2.762-.124,13.471,13.471,0,0,1-2.087-.645l0-.095c-.052.085-.108.168-.156.255a5.41,5.41,0,0,1-4.616,2.932c-.972.069-1.951.04-2.927.048a.828.828,0,0,1-.256-.089l.032-.123c.225,0,.45,0,.676,0,.788-.015,1.583.029,2.363-.063a2.182,2.182,0,0,0,2.055-2.347c.015-1.828.006-3.656.006-5.485q0-2.649,0-5.3a2.05,2.05,0,0,0-1.638-2.22,3.032,3.032,0,0,0-1.807-.018,2.262,2.262,0,0,0-1.687,2.083c-.032.392-.05.787-.051,1.181,0,2.264-.011,4.529,0,6.793a5.216,5.216,0,0,0,.166,1.289A2.223,2.223,0,0,0,110.572,188c.383.022.768.018,1.151.04.071,0,.139.075.209.115-.068.041-.133.113-.2.118a6.4,6.4,0,0,1-6.878-5.608,6.924,6.924,0,0,1,2.167-6.471,5.842,5.842,0,0,1,7.67-.257.428.428,0,0,0,.569.052c.711-.406,1.438-.785,2.16-1.173C117.5,174.764,117.6,174.725,117.712,174.671Z" transform="translate(-87.346 -165.971)" fill="#2d4383"/>
        <path id="Path_87822" data-name="Path 87822" d="M54.489,141.593a4.793,4.793,0,0,1-.006.546.309.309,0,0,1-.131.212,1.23,1.23,0,0,0-.645,1.244q.012,5.953,0,11.905,0,4.051,0,8.1a.494.494,0,0,1-.3.508c-1.2.645-2.379,1.313-3.573,1.962a1.1,1.1,0,0,1-.5.129q-2.415.014-4.83,0a5.9,5.9,0,0,1-5.922-4.751,7.748,7.748,0,0,1-.158-1.574c-.016-2.763,0-5.527-.013-8.29,0-.512.2-1.145-.674-1.24a19.121,19.121,0,0,1,4.724-.021c-.074.027-.134.053-.2.071a.475.475,0,0,0-.386.466c-.016.446-.033.892-.034,1.339q-.011,5.516-.01,11.032a4.655,4.655,0,0,0,.11,1.016,1.983,1.983,0,0,0,1.918,1.661c1.452.048,2.908.053,4.36,0a2.21,2.21,0,0,0,2.034-2.185c.01-.207.005-.415.005-.623q0-9.459-.006-18.917a.487.487,0,0,1,.3-.5c1.192-.629,2.376-1.276,3.563-1.915C54.231,141.723,54.332,141.673,54.489,141.593Z" transform="translate(-37.751 -141.537)" fill="#2d4383"/>
        <path id="Path_87823" data-name="Path 87823" d="M440.383,174.714c.03.381.085.7-.342.909a.849.849,0,0,0-.4.826c.006,2.036.031,4.073,0,6.108a5.658,5.658,0,0,1-3.019,5.066,5.816,5.816,0,0,1-2.9.715q-2.4.025-4.8,0a5.7,5.7,0,0,1-2.826-.745c-.072-.041-.145-.079-.218-.117a.325.325,0,0,0-.066-.005l-.138.248a5.419,5.419,0,0,1-4.618,2.93c-.983.069-1.972.04-2.958.048a.788.788,0,0,1-.255-.094l.032-.118c.527,0,1.055.008,1.582,0a15.77,15.77,0,0,0,1.584-.065,2.157,2.157,0,0,0,1.927-2.039c.027-.383.044-.767.045-1.151q.005-4.94-.005-9.879a.554.554,0,0,1,.346-.57c1.166-.613,2.321-1.247,3.48-1.872.1-.053.2-.1.3-.155.132.459.088.588-.264.85a1.011,1.011,0,0,0-.439.85c0,3.075-.005,6.15,0,9.224A2.206,2.206,0,0,0,428,187.963a4.66,4.66,0,0,0,1.11.118c1.631,0,3.262.008,4.892-.029a2.128,2.128,0,0,0,2.176-2.211c.025-2.991.016-5.983.018-8.975a1.66,1.66,0,0,0-.823-1.421,2.968,2.968,0,0,0-2.816-.344,2.235,2.235,0,0,0-1.5,2.228q-.053,3.614,0,7.23a2.391,2.391,0,0,0,2.6,2.424c.249.006.5-.007.747.008.067,0,.13.082.195.126-.063.034-.124.094-.188.1a6.513,6.513,0,0,1-6.391-3.738,6.141,6.141,0,0,1,2.688-7.974,5.852,5.852,0,0,1,6.725.516.336.336,0,0,0,.439.039c.753-.417,1.513-.822,2.271-1.23C440.213,174.791,440.287,174.76,440.383,174.714Z" transform="translate(-319.12 -166.031)" fill="#2d4383"/>
        <path id="Path_87824" data-name="Path 87824" d="M152.734,232.151a1.973,1.973,0,0,1,2.116-1.691,1.927,1.927,0,0,1,.052,3.825c-.99.154-1.841-.5-2.19-1.734a2.031,2.031,0,0,1-1.219,1.6,1.875,1.875,0,0,1-1.279.06,1.922,1.922,0,0,1,.252-3.737C151.425,230.289,152.123,230.8,152.734,232.151Z" transform="translate(-119.995 -207.307)" fill="#2d4383"/>
        <path id="Path_87825" data-name="Path 87825" d="M379.333,157.008c-.537,1.308-1.277,1.843-2.266,1.639a1.918,1.918,0,0,1,.021-3.789c1-.179,1.773.394,2.239,1.653.5-1.288,1.269-1.845,2.264-1.649a1.925,1.925,0,0,1-.083,3.808C380.55,158.83,379.77,158.234,379.333,157.008Z" transform="translate(-287.747 -151.331)" fill="#2d4383"/>
        <path id="Path_87826" data-name="Path 87826" d="M472.418,156.817a1.906,1.906,0,0,1-1.912,1.92,1.92,1.92,0,1,1,.007-3.84A1.89,1.89,0,0,1,472.418,156.817Z" transform="translate(-356.683 -151.385)" fill="#2d4383"/>
        <path id="Path_87827" data-name="Path 87827" d="M386.823,143.379a1.908,1.908,0,1,1-1.911-1.917A1.895,1.895,0,0,1,386.823,143.379Z" transform="translate(-293.333 -141.44)" fill="#2d4383"/>
      </g>
    </g>
  </g>
</svg>
